<?xml version="1.0" encoding="UTF-8"?>
<svg version="1.1" xmlns="http://www.w3.org/2000/svg" width="512" height="512">
<path d="M0 0 C2.08236793 -0.00963279 4.16371517 -0.04069945 6.24584961 -0.07226562 C29.35704292 -0.25478363 51.2129265 6.73719961 68.23999023 22.86523438 C76.61621554 31.48240017 83.52251425 41.46123179 90.68139648 51.08398438 C93.1595695 54.40645217 95.67052045 57.69740416 98.22827148 60.95898438 C98.80931641 61.70325684 99.39036133 62.4475293 99.98901367 63.21435547 C101.06850619 64.59266403 102.15453094 65.96589628 103.2487793 67.33251953 C106.08907019 70.97146831 108.00290763 74.27312948 109.74389648 78.56054688 C111.15772727 81.49411967 111.90155877 82.9080308 114.82055664 84.40673828 C117.64531585 85.14532927 120.40470189 85.60457202 123.29858398 85.99023438 C125.38338504 86.35698677 127.46673848 86.73206069 129.54858398 87.11523438 C130.57209961 87.29699219 131.59561523 87.47875 132.65014648 87.66601562 C165.69194246 94.21203181 194.77428327 116.55120844 218.54858398 139.24023438 C219.4212793 140.07167969 220.29397461 140.903125 221.19311523 141.75976562 C226.62554263 147.05867714 231.57319478 152.60725572 236.25024414 158.58251953 C237.1828595 159.77327889 238.12065678 160.9599865 239.06176758 162.14404297 C246.70227385 171.76993192 253.58826623 181.49177725 259.54858398 192.24023438 C259.95173828 192.95373047 260.35489258 193.66722656 260.77026367 194.40234375 C279.61088284 227.91286855 292.6357134 270.30019314 281.97387695 308.61987305 C275.2461736 330.52645452 262.02884111 344.64404762 244.52514648 358.79492188 C241.79605492 361.03693148 239.11784412 363.32411675 236.45043945 365.63842773 C233.50102329 368.19353475 230.53000046 370.72257523 227.54858398 373.24023438 C227.00975586 373.6960791 226.47092773 374.15192383 225.91577148 374.62158203 C205.93419897 391.32415881 184.35444116 396.55048627 158.54858398 395.24023438 C148.22721116 394.29150856 138.43930846 391.51467041 128.64624023 388.22851562 C125.77293571 387.13891858 125.77293571 387.13891858 123.54858398 387.24023438 C123.0597876 388.42987793 122.57099121 389.61952148 122.06738281 390.84521484 C120.23541016 395.30105079 118.39845202 399.75481757 116.56005859 404.20800781 C115.76835362 406.12770296 114.97796261 408.0479406 114.18896484 409.96875 C113.04805468 412.7456142 111.9022746 415.52042757 110.75561523 418.29492188 C110.40956741 419.14013397 110.06351959 419.98534607 109.70698547 420.85617065 C104.72335619 432.87779139 99.1809808 443.27986524 89.54858398 452.24023438 C88.85249023 452.91828125 88.15639648 453.59632813 87.43920898 454.29492188 C65.08006486 475.44353909 31.35933031 482.01896707 1.39233398 481.42382812 C-58.12294489 478.5811268 -113.17492986 456.37239014 -156.45141602 415.24023438 C-157.08305664 414.66144531 -157.71469727 414.08265625 -158.36547852 413.48632812 C-179.46129197 393.5402865 -195.59717607 364.21602929 -196.50219727 334.88085938 C-196.28873152 319.57700769 -192.00901715 307.26531673 -186.24859619 293.18939209 C-185.37618328 291.0562854 -184.50919303 288.92101395 -183.64233398 286.78564453 C-181.67674306 281.95191104 -179.69256629 277.1259881 -177.70141602 272.30273438 C-177.37976471 271.52119995 -177.0581134 270.73966553 -176.72671509 269.93444824 C-173.35968831 261.77701821 -169.98083853 253.83825421 -165.45141602 246.24023438 C-166.01687134 245.53229736 -166.01687134 245.53229736 -166.59375 244.81005859 C-185.85275119 220.61097261 -198.95729199 198.62115151 -195.76391602 166.67773438 C-191.41351043 128.5236051 -169.79078565 93.4457131 -142.45141602 67.24023438 C-141.21391602 66.00273437 -141.21391602 66.00273437 -139.95141602 64.74023438 C-139.12641602 63.91523437 -138.30141602 63.09023437 -137.45141602 62.24023438 C-136.92676758 61.68078125 -136.40211914 61.12132812 -135.86157227 60.54492188 C-129.63023077 54.03692463 -122.62263567 48.65673236 -115.45141602 43.24023438 C-114.90243652 42.81983887 -114.35345703 42.39944336 -113.7878418 41.96630859 C-81.49739431 17.3552232 -40.9122898 0.11384289 0 0 Z " fill="#2C3F68" transform="translate(211.451416015625,15.759765625)"/>
<path d="M0 0 C1.54385376 -0.00821777 1.54385376 -0.00821777 3.11889648 -0.01660156 C13.19311248 0.07684978 22.94989089 1.33623717 32.375 5 C33.38784058 5.38647705 33.38784058 5.38647705 34.42114258 5.78076172 C40.32062155 8.1388619 45.31169571 11.31439043 50.25 15.3125 C51.49716797 16.25029297 51.49716797 16.25029297 52.76953125 17.20703125 C62.42987033 25.40690962 68.28425401 37.95812873 70.25 50.3125 C72.98874567 83.83605115 60.51892633 114.07000798 40.25 140.3125 C39.54359375 141.23160156 38.8371875 142.15070313 38.109375 143.09765625 C29.51497435 153.90431929 20.03622385 164.64567452 9.25 173.3125 C8.15332936 174.22097227 7.05701038 175.12986912 5.9609375 176.0390625 C-31.80807679 207.0968058 -78.41717707 227.53739641 -128.06396484 223.10595703 C-140.85167435 221.43689749 -153.23134925 215.98423018 -162.75 207.3125 C-163.79607422 206.38630859 -163.79607422 206.38630859 -164.86328125 205.44140625 C-176.55622167 194.49716635 -181.76247768 179.91719645 -182.29296875 164.13232422 C-182.36729038 153.40213932 -181.00053891 143.52561299 -177.75 133.3125 C-177.44449219 132.33603516 -177.44449219 132.33603516 -177.1328125 131.33984375 C-166.10745154 97.10677856 -141.8197966 67.23959873 -113.75 45.3125 C-112.77804688 44.52359375 -111.80609375 43.7346875 -110.8046875 42.921875 C-101.95341413 35.86747667 -92.54719019 29.96448195 -82.75 24.3125 C-82.04858887 23.90612305 -81.34717773 23.49974609 -80.62451172 23.08105469 C-64.36603925 13.77403027 -47.06144874 7.22020092 -28.75 3.3125 C-26.93628906 2.86583984 -26.93628906 2.86583984 -25.0859375 2.41015625 C-16.69553239 0.5253551 -8.59926151 0.03303743 0 0 Z " fill="#566BD2" transform="translate(213.75,31.6875)"/>
<path d="M0 0 C6.74450835 0.53765506 12.6682486 1.88059513 19.0625 4.0625 C19.97862061 4.37340576 20.89474121 4.68431152 21.83862305 5.00463867 C46.62312564 13.67068458 68.18674532 28.91358265 87 47 C87.59603027 47.56879883 88.19206055 48.13759766 88.80615234 48.72363281 C97.69503718 57.24797478 105.74220527 66.0470338 113 76 C113.76699219 77.04542969 114.53398437 78.09085937 115.32421875 79.16796875 C131.05801875 101.27217294 142.89356257 125.23103567 148.54248047 151.85668945 C148.85867283 153.33793423 149.1921709 154.81555243 149.53955078 156.28979492 C154.24646914 177.33111807 152.01481747 200.45950515 141.1875 219.25 C131.09242548 234.0204871 117.68107846 242.03130857 100.33789062 245.60449219 C70.05422008 250.72766954 37.18284358 236.00146441 12.8828125 219.11328125 C2.31226978 211.36441457 -7.54174091 203.07260123 -17 194 C-17.82371094 193.21753906 -18.64742188 192.43507813 -19.49609375 191.62890625 C-33.20946905 178.29579786 -44.53535801 162.30548678 -54.00097656 145.73388672 C-54.96504144 144.06067343 -55.96243773 142.40680129 -56.9609375 140.75390625 C-57.53070313 139.78324219 -58.10046875 138.81257812 -58.6875 137.8125 C-59.43580078 136.55373047 -59.43580078 136.55373047 -60.19921875 135.26953125 C-61 133 -61 133 -60.34375 130.87109375 C-58.97025872 128.958587 -57.66639678 127.69239109 -55.8125 126.25 C-51.71877167 122.86237677 -48.42150321 119.0508991 -45 115 C-44.18660156 114.08605469 -43.37320312 113.17210937 -42.53515625 112.23046875 C-13.54321279 79.4106993 -0.56753954 43.30913777 0 0 Z " fill="#F58E9B" transform="translate(329,118)"/>
<path d="M0 0 C3.22804971 1.38344988 4.95435419 2.88715026 7.125 5.625 C19.5601015 20.12825522 38.43664 28.91831072 57.34692383 30.8190918 C62.93446714 31.20009572 68.52666677 31.1903917 74.125 31.1875 C75.41148437 31.18814453 76.69796875 31.18878906 78.0234375 31.18945312 C85.90787855 31.14556201 93.4724667 30.78361153 101.25 29.4375 C103.89280642 29.01705352 106.33088267 28.96865131 109 29 C104.82363228 40.36135565 100.40573077 51.61191595 95.82128906 62.81469727 C94.73106115 65.48386738 93.65073639 68.15692692 92.5703125 70.83007812 C91.87560052 72.53149532 91.1803107 74.23267673 90.484375 75.93359375 C90.16353943 76.73131699 89.84270386 77.52904022 89.512146 78.35093689 C87.22855412 83.88572294 87.22855412 83.88572294 85 85 C82.56442428 84.09176973 80.23804483 83.13171929 77.875 82.0625 C76.88693359 81.62647461 76.88693359 81.62647461 75.87890625 81.18164062 C74.24950495 80.46139802 72.62433868 79.73158857 71 79 C70.80664062 79.58007812 70.61328125 80.16015625 70.4140625 80.7578125 C68.94270833 85.171875 67.47135417 89.5859375 66 94 C66.92683594 94.33773437 67.85367188 94.67546875 68.80859375 95.0234375 C70.60490234 95.69246094 70.60490234 95.69246094 72.4375 96.375 C74.22994141 97.03628906 74.22994141 97.03628906 76.05859375 97.7109375 C79 99 79 99 80 101 C79.26481271 103.02969355 78.43770641 105.02663486 77.5625 107 C75.67820323 110.86533439 75.67820323 110.86533439 75 115 C79.62 116.65 84.24 118.3 89 120 C89.78375 117.875625 90.5675 115.75125 91.375 113.5625 C93.75 107.125 93.75 107.125 96 106 C98.24310013 106.89666342 100.44754321 107.89146683 102.625 108.9375 C103.81351562 109.50339844 105.00203125 110.06929688 106.2265625 110.65234375 C107.14179688 111.09707031 108.05703125 111.54179687 109 112 C108.43696384 115.18142763 107.73413754 117.61680091 106.4375 120.625 C104.80406897 123.84861488 104.80406897 123.84861488 105 127 C109.62 128.98 114.24 130.96 119 133 C119.680625 130.64875 119.680625 130.64875 120.375 128.25 C121.32417377 124.97103608 122.38274466 122.00950123 124 119 C129.50364777 119.76795085 129.50364777 119.76795085 132.1640625 121.01171875 C139.98803586 123.73825492 151.20182319 123.449299 158.6875 119.9375 C166.52099033 115.13763329 171.74119213 108.94097254 174.58984375 100.1875 C176.01039884 92.61120618 175.74983004 84.21830384 173 77 C173.65226563 76.64808594 174.30453125 76.29617188 174.9765625 75.93359375 C182.08628023 71.91733727 186.50626038 67.74060943 191 61 C194.96448493 62.55451961 197.32542353 65.30934242 200.0625 68.4375 C201.04513461 69.53021341 202.02955434 70.62132379 203.015625 71.7109375 C203.51384766 72.26233398 204.01207031 72.81373047 204.52539062 73.38183594 C212.65247416 82.30009913 221.38724479 89.77409504 231 97 C231.92683594 97.71027344 232.85367188 98.42054688 233.80859375 99.15234375 C241.19398501 104.69413065 249.0435809 109.34191168 257 114 C258.6680315 114.99772176 260.33529128 115.99674398 262 117 C260.64969899 127.02823551 251.95017124 134.65320996 244.40625 140.64453125 C229.68164374 151.2485104 212.66942435 155.50755667 195 158 C193.06060547 158.28037109 193.06060547 158.28037109 191.08203125 158.56640625 C141.40350544 164.55493338 85.88699071 144.5686678 46.9375 114.3828125 C21.9678521 94.1281779 -0.86309904 69.90349726 -7 37 C-8.34072813 23.83113921 -6.49219716 11.64118112 0 0 Z " fill="#45C79C" transform="translate(57,277)"/>
<path d="M0 0 C2.31422962 3.88459972 1.67316439 5.56303379 0.75 9.9375 C-0.16920743 12.40487359 -1.1216146 14.74028603 -2.21484375 17.125 C-2.51939484 17.80765427 -2.82394592 18.49030853 -3.13772583 19.19364929 C-4.14549546 21.44568013 -5.16622315 23.69156606 -6.1875 25.9375 C-6.90672543 27.53596377 -7.62538265 29.13468332 -8.34350586 30.73364258 C-14.3291421 44.02883468 -20.42966067 57.27281807 -26.57446289 70.49511719 C-30.30000432 78.51545774 -33.98731736 86.54896242 -37.58203125 94.62890625 C-38.27129026 96.17168123 -38.96065967 97.7144069 -39.65014648 99.25708008 C-40.93880465 102.14120481 -42.21342869 105.03099257 -43.48071289 107.92456055 C-44.05689375 109.21558241 -44.6336041 110.50636813 -45.2109375 111.796875 C-45.70384277 112.91545898 -46.19674805 114.03404297 -46.70458984 115.18652344 C-48.3824345 118.17324596 -49.22112768 119.37457319 -52.25 120.9375 C-55.21281961 121.72676177 -58.20119766 122.19643396 -61.23046875 122.65625 C-62.1167244 122.80026245 -63.00298004 122.9442749 -63.91609192 123.09265137 C-66.75496153 123.55166596 -69.59601362 123.9950031 -72.4375 124.4375 C-74.29900014 124.73460132 -76.16033053 125.03276831 -78.02148438 125.33203125 C-80.77891129 125.77531238 -83.53644258 126.21771452 -86.29476929 126.65536499 C-92.04719301 127.57025453 -97.78621816 128.54271167 -103.51953125 129.5703125 C-109.25038898 130.59665706 -114.98002915 131.53494107 -120.75 132.3125 C-127.37690505 133.23111906 -133.99575497 134.19374051 -140.609375 135.203125 C-141.34043457 135.31463898 -142.07149414 135.42615295 -142.82470703 135.54104614 C-145.77247119 135.99127787 -148.72011439 136.44224897 -151.66723633 136.89666748 C-156.19235036 137.59436942 -160.71974346 138.27377728 -165.25 138.9375 C-166.19866943 139.0828418 -167.14733887 139.22818359 -168.12475586 139.37792969 C-173.89094945 140.17198199 -173.89094945 140.17198199 -177.3125 137.9375 C-179.73791093 134.18202501 -179.60310207 132.36074928 -179.25 127.9375 C-178.39146517 125.41185564 -177.50236353 123.14908192 -176.3828125 120.75 C-176.07684647 120.06734573 -175.77088043 119.38469147 -175.4556427 118.68135071 C-174.44136644 116.42745789 -173.40845451 114.18265607 -172.375 111.9375 C-171.65076866 110.33924102 -170.92756296 108.74051694 -170.20532227 107.14135742 C-167.90626852 102.06444917 -165.57990962 97.00030511 -163.25 91.9375 C-162.48902512 90.28079384 -161.72811944 88.62405589 -160.96728516 86.96728516 C-157.96451921 80.43335652 -154.95597041 73.90216475 -151.92797852 67.37988281 C-148.20283404 59.35431315 -144.50576477 51.31839233 -140.8828125 43.24609375 C-140.5357576 42.47457474 -140.1887027 41.70305573 -139.83113098 40.90815735 C-138.18984925 37.25908984 -136.55489672 33.60745261 -134.93139648 29.95043945 C-134.35171007 28.65952857 -133.77173067 27.3687492 -133.19140625 26.078125 C-132.69326416 24.95954102 -132.19512207 23.84095703 -131.68188477 22.68847656 C-129.78621335 19.04646028 -128.56006912 17.50594469 -124.78442383 15.86767578 C-119.80547054 14.55733441 -114.78803881 13.81250569 -109.69921875 13.0546875 C-108.55218475 12.8792189 -107.40515076 12.70375031 -106.22335815 12.52296448 C-102.46209364 11.94818717 -98.69982078 11.38031847 -94.9375 10.8125 C-89.67917635 10.01243966 -84.42148326 9.2083099 -79.1640625 8.40234375 C-78.49982584 8.3007023 -77.83558918 8.19906086 -77.15122414 8.09433937 C-67.72256657 6.6502228 -58.30627073 5.14119185 -48.8984375 3.56640625 C-47.77993912 3.37985474 -46.66144073 3.19330322 -45.50904846 3.00109863 C-41.24260691 2.28840367 -36.97642911 1.57480838 -32.71322632 0.84295654 C-5.91946832 -3.75658566 -5.91946832 -3.75658566 0 0 Z " fill="#2C3F69" transform="translate(247.25,75.0625)"/>
<path d="M0 0 C6.22902679 5.04422132 11.7666084 11.35351337 12.88671875 19.4921875 C13.83458326 29.77471773 13.01107389 37.83990704 6.88671875 46.4921875 C2.35629575 51.63785313 -2.86142206 54.79742061 -9.11328125 57.4921875 C-9.77328125 57.4921875 -10.43328125 57.4921875 -11.11328125 57.4921875 C-10.61828125 64.4221875 -10.61828125 64.4221875 -10.11328125 71.4921875 C-5.49328125 72.4821875 -0.87328125 73.4721875 3.88671875 74.4921875 C4.54671875 72.8421875 5.20671875 71.1921875 5.88671875 69.4921875 C10.51863183 62.52956657 17.65946863 57.23256733 25.88671875 55.4921875 C36.76324613 54.45098827 46.49902802 56.7102574 55.1015625 63.65234375 C60.8893482 69.6174358 65.14913893 77.76376466 65.26171875 86.1171875 C65.07442896 95.64555537 61.80810085 104.76224788 54.88671875 111.4921875 C45.72288157 118.19343 37.20437737 120.58042391 25.88671875 119.4921875 C17.51562999 117.24628564 9.84641414 111.64855738 4.921875 104.5546875 C3.88671875 102.4921875 3.88671875 102.4921875 3.2578125 99.7421875 C2.49319665 96.45652397 1.85735839 94.25195496 -0.11328125 91.4921875 C-4.99280017 88.89588856 -10.67936517 88.073355 -16.11328125 87.4921875 C-17.10328125 87.8221875 -18.09328125 88.1521875 -19.11328125 88.4921875 C-18.61828125 89.5646875 -18.12328125 90.6371875 -17.61328125 91.7421875 C-14.50614522 100.17159483 -15.42801803 108.749414 -18.78515625 116.953125 C-22.99658649 125.0043887 -30.38829196 131.73629433 -39.11328125 134.4921875 C-48.96772139 135.70650238 -58.94138129 135.6797064 -67.11328125 129.4921875 C-72.38421518 125.27544036 -75.55567408 120.69984712 -78.11328125 114.4921875 C-78.52578125 113.5846875 -78.93828125 112.6771875 -79.36328125 111.7421875 C-81.41699382 102.84276638 -80.70604454 94.43818989 -76.11328125 86.4921875 C-71.10212476 79.05977511 -64.72841933 74.1013436 -56.11328125 71.4921875 C-48.08909369 70.22584227 -40.03156587 70.48472643 -32.91015625 74.71484375 C-30.79914408 75.84417206 -30.79914408 75.84417206 -27.11328125 74.4921875 C-27.60828125 65.5821875 -27.60828125 65.5821875 -28.11328125 56.4921875 C-29.76328125 56.1621875 -31.41328125 55.8321875 -33.11328125 55.4921875 C-41.65314466 50.50193688 -47.53418263 43.03020537 -50.11328125 33.4921875 C-51.23353983 22.21884857 -50.03118387 14.29755807 -43.28125 4.95703125 C-40.94466226 2.30047834 -38.66782426 0.61792043 -35.67578125 -1.2578125 C-34.74894531 -1.85078125 -33.82210937 -2.44375 -32.8671875 -3.0546875 C-22.52281585 -8.51299425 -9.23349415 -6.58803834 0 0 Z " fill="#2F4068" transform="translate(383.11328125,162.5078125)"/>
<path d="M0 0 C6.95190098 1.86639932 13.2767085 4.29887061 19.6875 7.5625 C20.5525415 8.00013672 21.41758301 8.43777344 22.30883789 8.88867188 C38.16863877 17.07702074 52.65154817 27.84662139 65.75 39.9375 C67.72789558 41.75057094 69.75196817 43.47039014 71.8125 45.1875 C81.80896983 53.92935216 90.34068111 64.19382917 98 75 C95.25105814 77.81034435 92.57049372 80.51437096 89.375 82.8125 C88.52035156 83.44091797 88.52035156 83.44091797 87.6484375 84.08203125 C86 85 86 85 83 85 C81.34375 83.234375 81.34375 83.234375 79.5 80.75 C74.67491358 74.49591175 69.42432472 68.72859779 64 63 C63.1234375 62.06929687 62.246875 61.13859375 61.34375 60.1796875 C54.42457829 53.03666023 46.9786259 46.91317317 39 41 C37.44152344 39.84177734 37.44152344 39.84177734 35.8515625 38.66015625 C22.86569454 29.35416271 8.84506103 21.87119777 -6 16 C-5.19110952 13.51960151 -4.37808099 11.04069788 -3.5625 8.5625 C-3.33240234 7.85544922 -3.10230469 7.14839844 -2.86523438 6.41992188 C-1.11328125 1.11328125 -1.11328125 1.11328125 0 0 Z " fill="#36456D" transform="translate(380,80)"/>
<path d="M0 0 C0.26103516 0.50748779 0.52207031 1.01497559 0.79101562 1.5378418 C2.02212966 3.92379902 3.26014915 6.30607096 4.5 8.6875 C4.94907715 9.55294434 5.3981543 10.41838867 5.86083984 11.31005859 C8.55384474 16.4399997 11.42284428 21.2988119 14.625 26.125 C17.41156598 30.55535843 19.02634115 33.79604052 18.45703125 39.07421875 C16.98554547 45.2745819 14.02199141 48.41286328 9 52 C3.23320389 54.41833385 -2.82399662 52.99337469 -8.40866089 50.81561279 C-9.56375656 50.34227509 -9.56375656 50.34227509 -10.7421875 49.859375 C-11.95565353 49.37419403 -11.95565353 49.37419403 -13.19363403 48.87921143 C-14.8919727 48.19591865 -16.58782301 47.50641152 -18.28125 46.81103516 C-20.88020044 45.74787264 -23.48981558 44.71485619 -26.1015625 43.68359375 C-27.75332714 43.01480366 -29.40439542 42.34429055 -31.0546875 41.671875 C-31.83689667 41.36441345 -32.61910583 41.0569519 -33.42501831 40.74017334 C-35.60107422 39.83105469 -35.60107422 39.83105469 -39 38 C-41.48324875 31.34977543 -37.19858635 23.41626572 -34.4765625 17.34375 C-30.01586927 9.24252853 -22.51530871 7.06135636 -14.08203125 4.48828125 C-13.19725098 4.24029785 -12.3124707 3.99231445 -11.40087891 3.73681641 C-7.30062066 2.47846992 -4.32939871 0 0 0 Z " fill="#45C79C" transform="translate(217,287)"/>
<path d="M0 0 C2.13444066 2.74785763 3.97962441 5.53140548 5.6875 8.5625 C6.12449219 9.32691406 6.56148438 10.09132813 7.01171875 10.87890625 C8 13 8 13 8 16 C5.69574578 17.61481645 3.42861976 19.03257333 1 20.4375 C-26.29824006 36.87994252 -48.14903581 58.46429673 -67 84 C-70.62276315 82.6744419 -73.63505348 81.05653045 -76.8125 78.875 C-77.60269531 78.33617188 -78.39289063 77.79734375 -79.20703125 77.2421875 C-79.79871094 76.83226563 -80.39039062 76.42234375 -81 76 C-80.54444933 71.12560788 -78.124766 68.10450367 -75.125 64.4375 C-74.62959717 63.82181152 -74.13419434 63.20612305 -73.6237793 62.57177734 C-68.66835049 56.47773774 -63.44400344 50.65850449 -58 45 C-57.40026367 44.37303223 -56.80052734 43.74606445 -56.18261719 43.10009766 C-47.34193533 33.90569954 -38.28343152 25.54449595 -28 18 C-27.42540039 17.56993652 -26.85080078 17.13987305 -26.25878906 16.69677734 C-17.87090237 10.42106625 -9.19950799 5.00520344 0 0 Z " fill="#31446E" transform="translate(100,17)"/>
<path d="M0 0 C-3.71217167 3.85198982 -7.61973259 7.24492726 -11.8125 10.5625 C-12.46847168 11.08424805 -13.12444336 11.60599609 -13.80029297 12.14355469 C-19.65890365 16.77866364 -25.62567809 21.26161414 -31.6171875 25.72265625 C-36.6911818 29.50528029 -41.71982454 33.34690814 -46.75 37.1875 C-54.14018387 42.82764033 -61.54609297 48.4442929 -69 54 C-72.2784794 49.0822809 -72.32446959 43.34114356 -73.125 37.5625 C-73.30675781 36.34111328 -73.48851562 35.11972656 -73.67578125 33.86132812 C-74.76226531 26.18650276 -75.24172151 18.74851736 -75 11 C-74.33806641 10.89977539 -73.67613281 10.79955078 -72.99414062 10.69628906 C-59.72587678 8.68276382 -46.47368713 6.60106628 -33.24072266 4.36694336 C-26.7729568 3.28028477 -20.30352058 2.27923244 -13.8046875 1.39453125 C-11.80250409 1.11288707 -9.80527881 0.79502333 -7.8125 0.453125 C-5.15027188 0.02421047 -2.69020904 -0.0791238 0 0 Z " fill="#7D98E2" transform="translate(209,94)"/>
<path d="M0 0 C0.495 0.99 0.495 0.99 1 2 C-0.00952148 4.59326172 -0.00952148 4.59326172 -1.62109375 7.9296875 C-1.91238159 8.54014923 -2.20366943 9.15061096 -2.50378418 9.77957153 C-3.14041759 11.11288512 -3.78041644 12.44459562 -4.42330933 13.77490234 C-6.15444253 17.3595821 -7.85882726 20.95689364 -9.5625 24.5546875 C-9.92109604 25.31110535 -10.27969208 26.06752319 -10.64915466 26.84686279 C-14.89189384 35.83220393 -18.9198616 44.91232416 -22.9375 54 C-23.29351288 54.80451599 -23.64952576 55.60903198 -24.0163269 56.43792725 C-26.01538754 60.95664146 -28.00988679 65.47733843 -30 70 C-35.09776321 69.38282894 -39.33950998 67.81839991 -44.0234375 65.83984375 C-44.76961334 65.53051407 -45.51578918 65.22118439 -46.28457642 64.90248108 C-48.65056311 63.92006655 -51.01278239 62.92893819 -53.375 61.9375 C-54.98543563 61.26699789 -56.5961104 60.59706986 -58.20703125 59.92773438 C-62.14081959 58.29178722 -66.07125461 56.64801898 -70 55 C-70 54.34 -70 53.68 -70 53 C-68.11328125 51.3984375 -68.11328125 51.3984375 -65.3125 49.375 C-64.20225338 48.56238744 -63.09295267 47.74848164 -61.984375 46.93359375 C-61.04174805 46.24305908 -61.04174805 46.24305908 -60.08007812 45.53857422 C-56.03997422 42.55022506 -52.05564305 39.48813464 -48.0625 36.4375 C-46.23703643 35.04549782 -44.4115146 33.65357204 -42.5859375 32.26171875 C-39.80865723 30.14308394 -37.03161888 28.02413316 -34.25488281 25.90478516 C-22.87425496 17.21892302 -11.47076274 8.5665668 0 0 Z " fill="#6B83DE" transform="translate(219,107)"/>
<path d="M0 0 C7.43009665 2.33610026 14.60630435 5.20171926 21.79443359 8.18847656 C23.75796453 9.00330513 25.72452412 9.81048715 27.69140625 10.6171875 C28.95591796 11.14016876 30.22024747 11.6635908 31.484375 12.1875 C32.61584961 12.65542969 33.74732422 13.12335938 34.91308594 13.60546875 C40.12470408 15.95984734 43.56533121 17.79300064 46.26953125 23.046875 C48.15919608 28.09945475 47.49608298 32.4466397 45.4375 37.25 C43.07166439 41.43761146 40.52166308 43.45776824 36 45 C26.91307083 46.82473066 18.58516362 42.54808199 10.40185547 39.12841797 C7.98447627 38.11851469 5.55807901 37.13349685 3.12890625 36.15234375 C1.5853646 35.52223491 0.04237441 34.89077312 -1.5 34.2578125 C-2.22388916 33.96190216 -2.94777832 33.66599182 -3.69360352 33.3611145 C-6.56875009 32.15590124 -8.77354243 31.22645757 -11 29 C-10.63660036 24.91282713 -9.52931919 21.41119066 -7.96875 17.63671875 C-7.57042969 16.66798828 -7.17210937 15.69925781 -6.76171875 14.70117188 C-6.34535156 13.70666016 -5.92898437 12.71214844 -5.5 11.6875 C-5.08363281 10.67365234 -4.66726562 9.65980469 -4.23828125 8.61523438 C-1.14690179 1.14690179 -1.14690179 1.14690179 0 0 Z " fill="#45C79C" transform="translate(170,339)"/>
<path d="M0 0 C3.50102599 1.44227361 5.16950303 3.16804015 7.3828125 6.2109375 C7.99253906 7.04367188 8.60226562 7.87640625 9.23046875 8.734375 C9.85566406 9.60578125 10.48085938 10.4771875 11.125 11.375 C11.75792969 12.23867187 12.39085937 13.10234375 13.04296875 13.9921875 C15.64360623 17.57013461 18.11981742 20.98309082 20 25 C-2.03436929 51.01477148 -2.03436929 51.01477148 -13 59 C-13.66 59 -14.32 59 -15 59 C-16.42188405 57.30456109 -17.76143179 55.53982929 -19.0625 53.75 C-19.86438967 52.65610801 -20.6664792 51.5623625 -21.46875 50.46875 C-21.88253906 49.90027344 -22.29632813 49.33179688 -22.72265625 48.74609375 C-24.80912819 45.89394403 -26.93730719 43.07334234 -29.0625 40.25 C-30.375 38.5 -31.6875 36.75 -33 35 C-31.4184559 30.87634206 -28.41299411 28.41256467 -25.1875 25.5625 C-20.34674888 21.18972454 -15.61496509 16.73595266 -11 12.125 C-10.20952271 11.34104858 -10.20952271 11.34104858 -9.40307617 10.54125977 C-6.05509312 7.18150876 -2.98990415 3.68241871 0 0 Z " fill="#3E579D" transform="translate(261,188)"/>
<path d="M0 0 C3.90869035 3.74553268 7.26156562 7.71473707 10.5625 12 C11.50112856 13.20846813 12.43992768 14.4168038 13.37890625 15.625 C13.81992676 16.19992188 14.26094727 16.77484375 14.71533203 17.3671875 C15.8958261 18.86759502 17.14632795 20.31221932 18.40234375 21.75 C18.92957031 22.4925 19.45679688 23.235 20 24 C18.86846578 27.39460266 18.34277624 27.7199406 15.44921875 29.56640625 C14.69713135 30.04762939 13.94504395 30.52885254 13.17016602 31.0246582 C12.35088623 31.532146 11.53160645 32.03963379 10.6875 32.5625 C9.84823975 33.08610107 9.00897949 33.60970215 8.14428711 34.14916992 C1.91757959 37.96684105 -4.43206397 41.49344899 -10.9375 44.8125 C-12.20557495 45.47004272 -12.20557495 45.47004272 -13.49926758 46.14086914 C-14.29228271 46.53395264 -15.08529785 46.92703613 -15.90234375 47.33203125 C-16.59835693 47.67983643 -17.29437012 48.0276416 -18.01147461 48.38598633 C-20.48216603 49.14888245 -21.62628829 49.0052835 -24 48 C-25.47631836 46.52880859 -25.47631836 46.52880859 -26.83984375 44.6484375 C-27.34580078 43.96136719 -27.85175781 43.27429688 -28.37304688 42.56640625 C-28.88931641 41.84324219 -29.40558594 41.12007813 -29.9375 40.375 C-30.44990234 39.67503906 -30.96230469 38.97507812 -31.49023438 38.25390625 C-33.00585597 36.17787057 -34.50556081 34.09132326 -36 32 C-36.73887451 30.96794434 -36.73887451 30.96794434 -37.49267578 29.91503906 C-38.66343543 28.27787252 -39.83196943 26.63911472 -41 25 C-38.03505714 21.8149766 -34.63574437 20.21348111 -30.75 18.375 C-25.0001533 15.57800835 -19.41573473 12.61141664 -13.9375 9.3125 C-13.34356445 8.95655762 -12.74962891 8.60061523 -12.13769531 8.23388672 C-7.94645317 5.67833756 -3.9695365 2.88739534 0 0 Z " fill="#3E579D" transform="translate(214,231)"/>
<path d="M0 0 C3.91602357 1.55383504 6.02058382 4.03650202 8.75 7.1875 C17.14832564 16.65762654 27.11189233 24.15903962 37 32 C32.96418356 36.08608462 28.79137322 39.95930563 24.49609375 43.76953125 C22.96527694 45.13744424 21.45254218 46.52636118 19.97265625 47.94921875 C15.64012242 52.01630193 15.64012242 52.01630193 12.69921875 51.94140625 C9.14374869 50.70136532 6.50861267 48.66060801 3.625 46.3125 C3.02574707 45.83208252 2.42649414 45.35166504 1.80908203 44.85668945 C-2.97874691 40.95891358 -7.58617013 36.87129698 -12.125 32.6875 C-13.06545166 31.82668823 -13.06545166 31.82668823 -14.02490234 30.94848633 C-17.63151378 27.56011559 -20.42699961 24.2307295 -23 20 C-16.90705793 14.4092961 -10.69057526 9.03488092 -4.25 3.84765625 C-1.97880251 2.04394839 -1.97880251 2.04394839 0 0 Z " fill="#E26F7E" transform="translate(290,313)"/>
<path d="M0 0 C0.31114746 0.56283691 0.62229492 1.12567383 0.94287109 1.70556641 C6.79864743 12.25026162 12.72150345 22.51354157 19.94140625 32.1875 C21.79609545 34.72142073 23.43514098 37.28024502 25 40 C8.85106383 54.14893617 8.85106383 54.14893617 1 60 C-3.31181257 56.00291828 -6.51846402 51.64862743 -9.75 46.75 C-10.26715576 45.96802246 -10.78431152 45.18604492 -11.31713867 44.38037109 C-14.87432665 38.91611837 -18.20493575 33.35684091 -21.3125 27.625 C-21.7034082 26.91827148 -22.09431641 26.21154297 -22.49707031 25.48339844 C-25.05466188 20.61235981 -25.05466188 20.61235981 -24.81811523 17.96240234 C-23.77236924 15.45398506 -22.60135446 14.64034268 -20.359375 13.125 C-19.61816406 12.61453125 -18.87695312 12.1040625 -18.11328125 11.578125 C-17.33339844 11.05734375 -16.55351562 10.5365625 -15.75 10 C-14.22302592 8.95970063 -12.69696162 7.91806443 -11.171875 6.875 C-10.44935547 6.38515625 -9.72683594 5.8953125 -8.98242188 5.390625 C-7.29510043 4.20700641 -5.67748808 2.92501705 -4.078125 1.625 C-2 0 -2 0 0 0 Z " fill="#E26F7E" transform="translate(256,261)"/>
<path d="M0 0 C2.84260363 1.37830478 5.54386333 2.89081891 8.23828125 4.5390625 C9.05176025 5.03365967 9.86523926 5.52825684 10.70336914 6.0378418 C11.56438232 6.561604 12.42539551 7.08536621 13.3125 7.625 C19.65456255 11.45749286 26.01990331 15.20653987 32.5625 18.6875 C33.17456299 19.01379395 33.78662598 19.34008789 34.41723633 19.67626953 C36.92512825 20.99192015 39.30667578 22.10222526 42 23 C41.42133149 27.26941071 40.39736392 30.87456091 38.71484375 34.8359375 C38.26689453 35.89941406 37.81894531 36.96289062 37.35742188 38.05859375 C36.88884766 39.15300781 36.42027344 40.24742187 35.9375 41.375 C35.46505859 42.49261719 34.99261719 43.61023438 34.50585938 44.76171875 C33.3429918 47.51031485 32.17421814 50.25623832 31 53 C27.59115201 52.42869509 24.83693927 51.59680929 21.77734375 49.99609375 C20.60691528 49.38531982 20.60691528 49.38531982 19.4128418 48.76220703 C18.595979 48.32505371 17.77911621 47.88790039 16.9375 47.4375 C15.67256714 46.76630127 15.67256714 46.76630127 14.38208008 46.08154297 C7.61917427 42.44181831 1.28265898 38.42005808 -5 34 C-6.99360837 32.65680121 -8.99623026 31.32804593 -11 30 C-10.34695118 26.10982879 -9.19461184 22.69556088 -7.71484375 19.04296875 C-7.26689453 17.93115234 -6.81894531 16.81933594 -6.35742188 15.67382812 C-5.88884766 14.52333984 -5.42027344 13.37285156 -4.9375 12.1875 C-4.46505859 11.01767578 -3.99261719 9.84785156 -3.50585938 8.64257812 C-2.34111284 5.76012457 -1.17236766 2.87936035 0 0 Z " fill="#00B177" transform="translate(98,407)"/>
<path d="M0 0 C0.61746094 0.18828369 1.23492187 0.37656738 1.87109375 0.57055664 C7.5566407 2.29212208 13.25475195 3.92740853 19 5.4375 C20.20136597 5.75400513 20.20136597 5.75400513 21.42700195 6.0769043 C29.90090406 8.28003605 38.43910174 10.16917469 47 12 C44.35842154 22.07101788 40.1285413 31.46898428 36 41 C26.42414604 41.1218745 17.75259145 39.11604239 8.5625 36.625 C6.87471436 36.16855103 6.87471436 36.16855103 5.15283203 35.70288086 C-0.43117963 34.14427119 -5.74884247 32.46313288 -11 30 C-10.34695118 26.10982879 -9.19461184 22.69556088 -7.71484375 19.04296875 C-7.26689453 17.93115234 -6.81894531 16.81933594 -6.35742188 15.67382812 C-5.88884766 14.52333984 -5.42027344 13.37285156 -4.9375 12.1875 C-4.46505859 11.01767578 -3.99261719 9.84785156 -3.50585938 8.64257812 C-2.34111284 5.76012457 -1.17236766 2.87936035 0 0 Z " fill="#00B177" transform="translate(155,437)"/>
<path d="M0 0 C3.04516202 2.83332467 5.16868601 5.65500311 7.25 9.25 C8.03117187 10.58804687 8.03117187 10.58804687 8.828125 11.953125 C9.21484375 12.62859375 9.6015625 13.3040625 10 14 C7.29039991 17.22571439 3.77267341 18.86202416 0.0625 20.6875 C-0.64060303 21.03345215 -1.34370605 21.3794043 -2.06811523 21.73583984 C-21.80850617 31.27311419 -43.87497256 39.78716627 -66 41 C-68.08141554 38.91858446 -67.73088761 34.81393047 -68.0625 31.9375 C-68.15337891 31.17888672 -68.24425781 30.42027344 -68.33789062 29.63867188 C-68.5624374 27.7595699 -68.78170978 25.87983905 -69 24 C-68.28682617 23.8548999 -67.57365234 23.7097998 -66.83886719 23.56030273 C-43.92953699 18.84053944 -19.78352207 13.18901471 0 0 Z " fill="#33476D" transform="translate(459,405)"/>
<path d="M0 0 C1.55639648 1.7565918 1.55639648 1.7565918 3.37109375 4.19921875 C4.02787109 5.07900391 4.68464844 5.95878906 5.36132812 6.86523438 C6.04646484 7.79658203 6.73160156 8.72792969 7.4375 9.6875 C8.11876953 10.59951172 8.80003906 11.51152344 9.50195312 12.45117188 C12.53937733 16.54172847 15.43055411 20.59516566 18 25 C16.64652311 25.46036629 15.292173 25.91816537 13.9375 26.375 C13.18339844 26.63023437 12.42929688 26.88546875 11.65234375 27.1484375 C-8.04042371 33.47100496 -8.04042371 33.47100496 -17 32 C-21.70802927 28.78503955 -24.14235289 24.79952313 -27 20 C-28.36551071 18.11807797 -29.73957582 16.24231086 -31.125 14.375 C-34 10.28110599 -34 10.28110599 -34 8 C-32.5459375 7.76216797 -32.5459375 7.76216797 -31.0625 7.51953125 C-22.15547202 5.99245211 -13.70807281 3.83471865 -5.1328125 0.98828125 C-2 0 -2 0 0 0 Z " fill="#3E579D" transform="translate(158,261)"/>
<path d="M0 0 C3.31483132 1.10494377 3.7969511 1.70484127 5.77734375 4.421875 C6.29103516 5.11796875 6.80472656 5.8140625 7.33398438 6.53125 C7.86314453 7.2634375 8.39230469 7.995625 8.9375 8.75 C9.98760798 10.18278536 11.03837509 11.61508789 12.08984375 13.046875 C12.58500488 13.73048096 13.08016602 14.41408691 13.59033203 15.1184082 C14.79641558 16.72826028 16.10253635 18.26232422 17.42578125 19.77734375 C17.94527344 20.51082031 18.46476562 21.24429688 19 22 C16.7497323 33.43886079 9.41668353 45.37497471 3 55 C-1.70902203 50.58924616 -5.55791885 45.64389135 -9.4375 40.5 C-10.43040039 39.23736328 -10.43040039 39.23736328 -11.44335938 37.94921875 C-12.05888672 37.13066406 -12.67441406 36.31210938 -13.30859375 35.46875 C-13.87376709 34.73076172 -14.43894043 33.99277344 -15.02124023 33.23242188 C-16 31 -16 31 -15.29248047 28.43212891 C-13.55513993 25.16288326 -11.64432815 22.01532552 -9.6875 18.875 C-5.94952466 12.77928263 -2.73810631 6.61823685 0 0 Z " fill="#3E579D" transform="translate(288,144)"/>
<path d="M0 0 C0.91265625 0.48210937 1.8253125 0.96421875 2.765625 1.4609375 C3.67924805 1.93418457 3.67924805 1.93418457 4.61132812 2.41699219 C6.75709611 3.53701339 8.88658912 4.68445564 11.015625 5.8359375 C16.84353111 8.95916622 22.66029599 11.90779991 28.765625 14.4609375 C27.49984412 18.25828013 25.83090209 19.25001798 22.703125 21.7109375 C18.47742251 25.04557983 14.55743068 28.47856925 10.8125 32.34375 C7.56154124 34.11812826 5.31023132 33.2839885 1.765625 32.4609375 C-1.06713418 31.53355023 -3.80313283 30.43593489 -6.546875 29.2734375 C-7.28800537 28.96462646 -8.02913574 28.65581543 -8.79272461 28.33764648 C-14.58732782 25.86598183 -19.99625379 22.97446843 -25.234375 19.4609375 C-21.39811706 15.51548816 -17.36258598 11.90004164 -13.171875 8.3359375 C-12.56021484 7.81128906 -11.94855469 7.28664063 -11.31835938 6.74609375 C-10.14430038 5.74338391 -8.96408782 4.74781913 -7.77685547 3.76074219 C-6.52138966 2.70279664 -5.30998977 1.59273038 -4.11328125 0.46875 C-2.234375 -0.5390625 -2.234375 -0.5390625 0 0 Z " fill="#E16F7E" transform="translate(342.234375,355.5390625)"/>
<path d="M0 0 C0.62132812 0.63035156 1.24265625 1.26070313 1.8828125 1.91015625 C4.43493407 4.46858158 7.05462824 6.95021919 9.6796875 9.43359375 C11.41189574 11.10110824 13.1436548 12.76908945 14.875 14.4375 C15.76703125 15.27087891 16.6590625 16.10425781 17.578125 16.96289062 C18.41601562 17.77822266 19.25390625 18.59355469 20.1171875 19.43359375 C20.88659668 20.16634521 21.65600586 20.89909668 22.44873047 21.65405273 C24 24 24 24 23.87182617 26.94799805 C23.03945016 29.86189683 22.10120175 32.60275638 20.93359375 35.3984375 C20.3293457 36.85830078 20.3293457 36.85830078 19.71289062 38.34765625 C19.29201172 39.34667969 18.87113281 40.34570312 18.4375 41.375 C18.01275391 42.39722656 17.58800781 43.41945313 17.15039062 44.47265625 C16.10587881 46.98417905 15.05560951 49.49312619 14 52 C9.92412524 52 9.01409161 50.74008328 6 48 C4.28960531 46.18024503 2.66070543 44.31845505 1.05859375 42.40234375 C-0.49332252 40.59128397 -2.1190905 38.84313429 -3.77734375 37.12890625 C-4.72704839 36.10722228 -5.67626903 35.08508818 -6.625 34.0625 C-7.52476563 33.12535156 -8.42453125 32.18820312 -9.3515625 31.22265625 C-11 28 -11 28 -10.72802734 25.95068359 C-9.94973835 23.56048554 -9.01095679 21.30111454 -8 19 C-7.39760834 17.40852218 -6.80122963 15.81475519 -6.2109375 14.21875 C-5.60122201 12.64495447 -4.98923905 11.07203554 -4.375 9.5 C-4.06304687 8.69046875 -3.75109375 7.8809375 -3.4296875 7.046875 C-3.130625 6.27859375 -2.8315625 5.5103125 -2.5234375 4.71875 C-2.25450684 4.02716797 -1.98557617 3.33558594 -1.70849609 2.62304688 C-1 1 -1 1 0 0 Z " fill="#01B177" transform="translate(61,372)"/>
<path d="M0 0 C-0.87140965 3.37774977 -1.93078109 6.67999779 -3 10 C-3.19916016 10.69625488 -3.39832031 11.39250977 -3.60351562 12.10986328 C-7.55722944 25.65920555 -7.55722944 25.65920555 -12.796875 28.53515625 C-15.81643703 29.02276495 -18.64166708 29.19013536 -21.69677734 29.07763672 C-24.40216711 28.98644381 -27.09422981 29.02468592 -29.80078125 29.06640625 C-35.20285114 29.13198327 -40.59855588 29.09538002 -46 29 C-45.70230713 28.25838623 -45.40461426 27.51677246 -45.09790039 26.75268555 C-43.75186682 23.39798404 -42.40716791 20.04274913 -41.0625 16.6875 C-40.59392578 15.52025391 -40.12535156 14.35300781 -39.64257812 13.15039062 C-39.19462891 12.03212891 -38.74667969 10.91386719 -38.28515625 9.76171875 C-37.66459351 8.2142395 -37.66459351 8.2142395 -37.03149414 6.63549805 C-36.30372236 4.7760196 -35.63145165 2.89435495 -35 1 C-30.66676008 0.83084529 -26.33339523 0.66512423 -22 0.5 C-20.77925781 0.45230469 -19.55851562 0.40460938 -18.30078125 0.35546875 C-12.19566329 0.12446429 -6.10950384 -0.06109504 0 0 Z " fill="#00B178" transform="translate(253,451)"/>
<path d="M0 0 C4.69327902 2.65657303 7.56838922 5.64266766 9.3125 10.875 C9.89415762 16.80790775 8.72951288 21.0681929 5.3125 25.875 C0.49349118 29.71053763 -3.42598987 31.24730198 -9.62890625 31.15625 C-14.23808812 30.52653255 -17.04546432 27.60379725 -20 24.25 C-23.30848774 19.59360985 -23.30832623 15.47968123 -22.6875 9.875 C-17.83323856 0.16647712 -10.16174733 -3.1001941 0 0 Z " fill="#D26275" transform="translate(422.6875,235.125)"/>
<path d="M0 0 C4.62254348 2.34636697 7.31119387 5.5267955 8.92578125 10.3515625 C10.07688128 16.38940792 8.80425586 20.53905881 5.5078125 25.625 C2.74070868 28.64490096 0.10737127 30.15838702 -3.94140625 30.8203125 C-9.75428252 30.88070602 -14.21538242 30.82563746 -18.73828125 26.8984375 C-21.96738506 23.1594752 -23.21596224 19.13207533 -23.51171875 14.2890625 C-22.87867167 8.59163877 -20.68379571 5.76952316 -16.44921875 2.0390625 C-11.4902571 -1.48441025 -5.83460982 -1.82400232 0 0 Z " fill="#D36275" transform="translate(342.07421875,250.6484375)"/>
<path d="M0 0 C4.3558171 2.22942897 6.9376595 4.89644465 8.94140625 9.3046875 C9.70784569 14.6065521 9.62095852 18.86717308 7.31640625 23.7421875 C2.76521205 28.6526865 -1.23962103 30.94507696 -7.88671875 31.40234375 C-12.63930381 31.18864838 -15.43207982 28.86158878 -18.87109375 25.8046875 C-22.59806214 21.54529505 -22.40039895 17.46033657 -22.3359375 12.03125 C-21.80698398 6.8311154 -19.16290766 4.30382866 -15.43359375 0.9296875 C-10.34915264 -1.51837674 -5.39337628 -1.82167168 0 0 Z " fill="#D36275" transform="translate(371.05859375,173.6953125)"/>
<path d="M0 0 C1.175625 0.144375 2.35125 0.28875 3.5625 0.4375 C4.22378906 0.51871094 4.88507813 0.59992188 5.56640625 0.68359375 C7.46530024 0.93048045 9.35626604 1.2385721 11.2421875 1.5703125 C14.15429882 1.9032982 16.28113164 1.95454322 19.12890625 1.68359375 C24.96071376 1.26843705 30.40232403 0.90474071 35.16357422 4.74511719 C40.77172183 10.71770763 45.43966972 17.62458451 49 25 C31.81132583 24.2078952 16.55556877 17.74027209 4 6 C2.39521069 4.04273759 1.22376467 2.22502668 0 0 Z " fill="#3E579C" transform="translate(72,268)"/>
<path d="M0 0 C3.83190505 3.50011022 6.08889113 6.63765772 8.1875 11.375 C8.67605469 12.45523438 9.16460937 13.53546875 9.66796875 14.6484375 C12.90261894 22.78723475 13.30797607 29.4956132 13.25 38.25 C13.25773437 39.43335938 13.26546875 40.61671875 13.2734375 41.8359375 C13.27085937 42.96773437 13.26828125 44.09953125 13.265625 45.265625 C13.26336914 46.29461914 13.26111328 47.32361328 13.25878906 48.38378906 C13 51 13 51 11 54 C8.66445875 51.16401771 6.36109227 48.30348045 4.0625 45.4375 C3.40314453 44.63763672 2.74378906 43.83777344 2.06445312 43.01367188 C-1.60379165 38.40485151 -4.04940427 35.11907157 -4 29 C-3.4765625 25.2734375 -3.4765625 25.2734375 -2.625 21.375 C-1.14544874 14.26514287 -0.36059867 7.26171106 0 0 Z " fill="#3E579C" transform="translate(300,93)"/>
<path d="M0 0 C0.495 0.99 0.495 0.99 1 2 C-5.02035758 17.84603552 -18.32818928 28.08813782 -33.1875 34.9375 C-34.78793848 35.63363478 -36.3907263 36.32454083 -38 37 C-40.11655016 30.65034951 -35.94363988 23.09581917 -33.328125 17.23828125 C-30.62234595 12.23986548 -28.000437 10.17276238 -22.71459961 8.20825195 C-19.2635335 7.20530473 -15.8024352 6.33587902 -12.29150391 5.56933594 C-7.85982852 4.46826338 -3.94107929 2.2505637 0 0 Z " fill="#01AF77" transform="translate(302,435)"/>
<path d="M0 0 C3.51630317 2.72565512 4.48528732 6.57751404 5.875 10.625 C7.8393378 16.16628447 9.93618936 21.18247394 13.21484375 26.10546875 C14.82385876 29.98791791 12.6546824 34.16705124 11.15234375 37.86328125 C10.79462891 38.74951172 10.43691406 39.63574219 10.06835938 40.54882812 C9.69517578 41.46083984 9.32199219 42.37285156 8.9375 43.3125 C8.56044922 44.24384766 8.18339844 45.17519531 7.79492188 46.13476562 C6.86716875 48.42478917 5.93541999 50.71309996 5 53 C4.34 53 3.68 53 3 53 C-4.03470007 37.37329985 -6.52032486 21.90936338 -2 5 C-1.35999762 3.32291348 -0.70000084 1.65294315 0 0 Z " fill="#01B077" transform="translate(36,327)"/>
<path d="M0 0 C1.40492584 0.21882592 2.79913075 0.50569026 4.1875 0.8125 C13.67708263 2.6675115 23.37539687 3.20782015 33 4 C29.70307157 7.53670504 26.70972752 9.986846 22.375 12.125 C21.43398438 12.60195313 20.49296875 13.07890625 19.5234375 13.5703125 C10.18505805 17.35949973 1.85956874 18.41704639 -8.1875 18.1875 C-9.33025391 18.17396484 -10.47300781 18.16042969 -11.65039062 18.14648438 C-14.43410963 18.1115423 -17.21678664 18.06249011 -20 18 C-16.11432772 13.99568124 -12.00723978 10.35363866 -7.75 6.75 C-3.78126563 3.47628175 -3.78126563 3.47628175 0 0 Z " fill="#E16F7E" transform="translate(389,376)"/>
<path d="M0 0 C1.97950163 2.96925244 2.37229755 4.23147597 2.8515625 7.640625 C2.98046875 8.54683594 3.109375 9.45304688 3.2421875 10.38671875 C3.36851563 11.33160156 3.49484375 12.27648437 3.625 13.25 C3.7590625 14.17941406 3.893125 15.10882813 4.03125 16.06640625 C4.39737588 18.70774293 4.70771765 21.34960769 5 24 C5.15597656 25.26714844 5.31195313 26.53429687 5.47265625 27.83984375 C4.91449203 31.57170206 3.65912532 32.7926271 0.68017578 35.02026367 C0.06384277 35.44670166 -0.55249023 35.87313965 -1.1875 36.3125 C-1.81156738 36.77180908 -2.43563477 37.23111816 -3.07861328 37.7043457 C-4.38308165 38.66440161 -5.69377777 39.61604731 -7.01025391 40.55957031 C-10.18942306 42.86105473 -13.27618098 45.27962506 -16.375 47.6875 C-18.24821399 49.12734455 -20.12418831 50.56353955 -22 52 C-22.33 51.34 -22.66 50.68 -23 50 C-21.97119141 47.33642578 -21.97119141 47.33642578 -20.3515625 43.9453125 C-20.06337646 43.33558594 -19.77519043 42.72585937 -19.47827148 42.09765625 C-18.53413529 40.1033862 -17.57948357 38.11433531 -16.625 36.125 C-15.65442256 34.08012348 -14.68675035 32.03388993 -13.71932983 29.98751831 C-13.07226292 28.61904807 -12.42433153 27.25098626 -11.77554321 25.8833313 C-8.98576454 19.99638257 -6.28305749 14.07261172 -3.625 8.125 C-3.25068848 7.28855957 -2.87637695 6.45211914 -2.49072266 5.59033203 C-1.65858364 3.72773488 -0.82894169 1.86402231 0 0 Z " fill="#8EAAE9" transform="translate(119,129)"/>
<path d="M0 0 C4.81430344 1.58997819 9.41352171 3.67024901 14.03027344 5.75366211 C15.09568359 6.22610352 16.16109375 6.69854492 17.25878906 7.18530273 C19.87368962 8.34617787 22.48474286 9.51495401 25.09277344 10.69116211 C22.09454583 12.36011997 19.46122124 13.12383084 16.08056641 13.66845703 C15.08628632 13.83169968 14.09200623 13.99494232 13.06759644 14.16313171 C12.00082672 14.33093643 10.93405701 14.49874115 9.83496094 14.67163086 C8.73556183 14.848741 7.63616272 15.02585114 6.50344849 15.20832825 C4.18234329 15.58045463 1.86070128 15.94924578 -0.46142578 16.31494141 C-4.02702876 16.87784153 -7.59018489 17.45466835 -11.15332031 18.03295898 C-13.4070931 18.39252053 -15.66099523 18.75127242 -17.91503906 19.10913086 C-18.98585724 19.28300827 -20.05667542 19.45688568 -21.15994263 19.6360321 C-22.1479184 19.78981827 -23.13589417 19.94360443 -24.15380859 20.10205078 C-25.02554718 20.24035812 -25.89728577 20.37866547 -26.79544067 20.52116394 C-28.90722656 20.69116211 -28.90722656 20.69116211 -30.90722656 19.69116211 C-30.11960937 19.08530273 -29.33199219 18.47944336 -28.52050781 17.85522461 C-28.00053223 17.454729 -27.48055664 17.0542334 -26.94482422 16.64160156 C-25.78373786 15.74950733 -24.62060861 14.86006636 -23.45556641 13.97314453 C-20.3829958 11.62807083 -17.35625117 9.25060331 -14.39550781 6.76538086 C-13.83114014 6.30244629 -13.26677246 5.83951172 -12.68530273 5.36254883 C-11.10567079 4.06403585 -9.54119376 2.74715237 -7.97753906 1.42944336 C-4.90115478 -0.31227548 -3.43861651 -0.76671855 0 0 Z " fill="#7D97E2" transform="translate(136.9072265625,173.308837890625)"/>
<path d="M0 0 C1.62912132 3.06032459 3.252557 6.12363037 4.875 9.1875 C5.33519531 10.05181641 5.79539063 10.91613281 6.26953125 11.80664062 C6.71425781 12.64775391 7.15898437 13.48886719 7.6171875 14.35546875 C8.02565918 15.12528076 8.43413086 15.89509277 8.85498047 16.68823242 C10.04076321 19.08229997 11.04011256 21.50776212 12 24 C0.33333333 19.33333333 -11.33333333 14.66666667 -23 10 C-21.04486419 8.04486419 -19.86041487 7.37027931 -17.375 6.30859375 C-16.66859375 6.00373047 -15.9621875 5.69886719 -15.234375 5.38476562 C-14.49703125 5.07216797 -13.7596875 4.75957031 -13 4.4375 C-2.66089613 0 -2.66089613 0 0 0 Z " fill="#02B178" transform="translate(217,287)"/>
<path d="M0 0 C5.61 0.66 11.22 1.32 17 2 C17.97981368 6.89906839 17.83321291 8.68710501 16.5625 13.3125 C16.13130859 14.91544922 16.13130859 14.91544922 15.69140625 16.55078125 C15.46324219 17.35902344 15.23507812 18.16726562 15 19 C13.08302063 18.85833643 11.16642277 18.71150416 9.25 18.5625 C8.18265625 18.48128906 7.1153125 18.40007812 6.015625 18.31640625 C3.56320038 18.05909227 1.36078709 17.68187782 -1 17 C-1.02777514 15.66679321 -1.04673341 14.33340287 -1.0625 13 C-1.07990234 11.88625 -1.07990234 11.88625 -1.09765625 10.75 C-0.96982615 7.15030427 -0.44676874 3.57414991 0 0 Z " fill="#3A486F" transform="translate(344,72)"/>
<path d="M0 0 C1.75570313 0.01353516 1.75570313 0.01353516 3.546875 0.02734375 C4.43890625 0.03894531 5.3309375 0.05054688 6.25 0.0625 C7.08485204 5.80210775 7.34063407 11.26191973 7.25 17.0625 C-1.165 17.5575 -1.165 17.5575 -9.75 18.0625 C-10.08 12.4525 -10.41 6.8425 -10.75 1.0625 C-6.91432171 0.10358043 -3.92718859 -0.03927189 0 0 Z " fill="#354A6F" transform="translate(369.75,430.9375)"/>
</svg>
